<svg width="759" height="1076" viewBox="0 0 759 1076" fill="none" xmlns="http://www.w3.org/2000/svg">
<path fill-rule="evenodd" clip-rule="evenodd" d="M600.83 747.356C607.645 751.865 613.377 758.701 617.979 765.895C598.768 763.896 579.591 761.591 560.455 758.967C562.96 757.365 565.489 755.799 568.075 754.32C577.51 749.002 590.294 740.387 600.83 747.356ZM281.654 804.165C278.134 802.786 276.772 797.417 275.4 794.339C271.099 784.688 267.173 774.872 263.089 765.127C278.597 760.705 293.677 755.798 309.742 753.441C327.016 750.909 344.545 750.296 361.978 750.865C397.29 752.017 432.273 757.79 466.99 763.981C501.666 770.164 536.341 776.105 571.26 780.767C605.471 785.334 639.79 788.677 674.174 791.612C680.854 792.182 691.993 794.586 697.365 789.327C701.619 785.161 701.757 777.479 696.434 774.093C693.118 771.982 688.315 771.951 684.527 771.464C679.757 770.85 674.968 770.442 670.169 770.124C668.213 769.995 666.258 769.876 664.302 769.757C680.002 763.835 696.4 760.605 713.42 761.505C714.383 767.355 718.719 773.374 721.093 778.198C725.237 786.62 728.468 795.145 730.589 804.303C735.022 823.446 735.215 843.313 733.963 862.837C732.813 879.116 730.342 897.122 717.578 908.651C707.914 917.38 694.279 920.612 681.63 921.628C666.928 922.81 651.999 921.548 637.42 919.577C616.973 916.811 596.43 913.154 576.384 908.252C537.56 898.758 500.346 883.652 466.012 863.171C449.268 853.184 433.292 841.948 416.318 832.341C399.023 822.549 380.62 814.954 361.296 810.238C339.67 804.96 317.063 802.707 294.836 804.009C290.978 804.234 285.406 805.634 281.654 804.165ZM256.593 794.365C258.866 801.742 260.605 810.165 265.455 816.364C270.26 822.507 277.508 824.675 285.017 825.221C294.07 825.879 303.23 825.457 312.304 825.795C330.914 826.486 349.268 829.51 367.058 835.057C383.637 840.226 399.027 848.29 413.851 857.235C427.56 865.508 440.866 874.39 454.58 882.637C450.93 884.311 447.321 886.122 443.693 887.698C436.084 891.004 428.427 894.193 420.736 897.303C405.57 903.435 390.34 909.419 374.954 914.977C343.929 926.185 312.394 935.977 280.48 944.319C265.259 948.297 249.821 952.944 234.008 953.606C219.985 954.192 206.997 950.227 195.688 941.887C172.231 924.587 153.57 899.617 138.484 874.988C129.521 860.355 121.699 844.98 115.23 829.083C111.958 821.043 108.99 812.881 106.319 804.622C105.067 800.745 103.878 796.845 102.754 792.928C102.259 791.206 101.785 789.478 101.315 787.748C125.3 780.426 149.571 773.816 174.411 770.147C187.673 768.187 201.113 767.196 214.52 767.34C221.175 767.411 227.827 767.771 234.447 768.458C238.01 768.828 241.559 769.304 245.092 769.894C246.553 770.136 248.053 770.495 249.559 770.759C251.858 778.642 254.177 786.518 256.593 794.365ZM752.406 763.025C753.699 760.409 754.244 757.835 754.707 754.988C755.061 752.815 755.998 749.757 755.177 746.937C754.257 743.778 751.752 740.953 749.954 738.258C747.968 735.28 745.984 732.301 744.003 729.32C740.039 723.358 736.085 717.391 732.137 711.42C716.013 687.035 700 662.58 683.961 638.141C669.728 616.453 655.734 594.57 641.067 573.173C628.526 554.876 614.856 536.881 597.69 522.651C575.985 504.66 550.14 496.184 523.143 489.57C520.195 486.509 516.257 484.837 512.047 485.176C506.1 478.428 501.373 473.715 499.23 465.134C498.203 461.023 498.525 449.474 494.524 447.042C489.771 444.153 487.288 447.977 485.977 452.287C481.592 466.706 486.626 486.092 498.209 500.536C493.328 517.409 486.858 541.388 475.316 554.906C462.955 569.38 445.862 573.885 427.419 574.182C392.248 574.748 357.114 561.672 330.287 539.008C322.133 532.121 314.56 524.428 307.709 516.246C302.57 510.108 296.491 500.635 292.47 493.475C292.47 490.685 289.177 487.767 322.704 485.512C356.23 483.258 358.772 437.334 359.518 431.084C360.124 426.009 362.7 418.131 359.125 413.993C357.608 412.235 354.494 411.952 352.571 413.146C348.944 415.4 347.752 421.162 346.612 425.075C345.014 430.556 339.792 464.577 329.898 468.516C325.265 470.36 319.952 470.394 315.052 470.735C309.001 471.158 302.937 471.467 296.911 472.172C294.688 472.431 292.263 473.151 290.07 473.172C288.643 473.185 287.171 472.492 285.792 472.005C281.137 470.359 276.486 471.594 271.69 472.238C229.291 477.939 185.635 490.948 149.471 514.357C117.595 534.989 95.1384 564.662 80.3202 599.354C65.2008 634.759 56.5347 673.045 49.2721 710.735C46.8392 723.364 44.7145 736.051 42.8892 748.781C41.1251 761.082 38.9185 773.658 38.3903 786.083C38.1811 790.999 39.3557 795.567 41.163 800.058C43.1984 805.112 48.0092 807.105 52.6235 809.465C62.7526 814.648 73.4379 818.668 84.4468 821.515C91.1722 833.755 96.8322 846.472 101.381 859.671C99.6932 863.016 99.6581 868.011 99.3336 871.262C98.5286 879.357 98.1843 887.494 98.1122 895.626C97.967 911.926 98.9469 928.209 99.7149 944.483C100.494 960.989 103.083 1026.11 103.504 1034.07C103.833 1040.24 103.391 1048.89 106.644 1054.37C111.643 1062.8 123.982 1062.52 129.697 1055.68C271.69 1086.22 538.598 1077.02 646.095 1061.66C660.081 1059.66 655.689 1061.87 659.246 1058.34C661.915 1055.68 664.187 1051.14 664.925 1047.49C665.911 1042.61 664.319 1038.2 661.529 1034.25C658.594 1030.1 658.06 1023.38 656.97 1018.45C654.393 1006.79 653.112 955.579 651.908 949.904C651.533 948.136 651.17 946.266 650.731 944.396C670.45 946.265 690.996 946.265 709.755 939.667C720.392 935.926 730.313 930.049 737.95 921.658C747.197 911.498 752.341 898.708 754.987 885.357C758.4 868.141 759.125 850.309 758.454 832.809C757.522 812.126 754.093 791.152 745.582 772.162C748.383 769.56 750.73 766.421 752.406 763.025Z" fill="#172126"/>
<path fill-rule="evenodd" clip-rule="evenodd" d="M254.382 98.3017C276.09 75.2511 399.333 39.5972 461.684 47.155L463.555 47.3973C468.531 48.0285 473.434 48.9844 478.274 50.2829C493.917 53.9378 510.076 59.4719 523.001 68.7158C533.792 76.278 567.832 88.6276 557.799 108.41C561.519 115.461 562.907 124.172 560.393 131.117C560.077 133.515 559.338 135.725 558.392 138.015C566.34 149.748 572.632 163.017 577.726 175.637C586.628 207.398 592.167 240.451 592.978 272.856C595.677 334.421 588.929 407.96 535.329 447.771C502.95 472.998 452.229 473.846 415.842 442.567C413.777 440.122 404.066 433.525 407.307 432.368C408.271 433.387 409.263 434.379 410.273 435.353C410.227 435.245 410.218 435.137 410.236 435.019L409.287 434.159C407.499 432.504 405.182 430.104 407.821 430.574C407.937 430.709 408.064 430.826 408.189 430.961C408.748 431.297 409.17 431.587 409.499 431.844L409.668 431.979L409.616 431.925C408.096 430.303 407.185 428.65 409.457 429.706L409.758 429.852C410.768 430.916 411.795 431.935 412.841 432.927C412.824 432.81 412.841 432.693 412.905 432.567L411.93 431.624C410.978 430.691 411.123 430.687 411.589 429.933C409.566 427.097 413.342 428.782 413.607 429.888C415.969 429.329 418.044 433.766 419.565 434.307C486.268 485.608 583.068 440.088 581.5 297.136L581.477 294.34C581.018 248.63 577.173 201.649 558.274 160.271C556.436 156.285 554.38 152.407 552.118 148.656C550.559 145.843 548.891 143.101 547.097 140.432C542.076 140.026 537.118 139.106 532.233 137.682C530.556 137.258 528.897 136.789 527.239 136.239C503.009 137.561 479.32 138.999 455.022 140.363L447.433 140.835C426.85 142.159 405.563 144.279 388.953 157.015C372.656 168.61 372.582 191.474 358.631 204.205C338.737 217.712 338.592 229.892 334.761 249.798C335.045 264.803 345.445 286.605 326.36 292.92C329.579 297.512 325.091 295.306 324.738 293.695C324.702 293.704 324.666 293.713 324.639 293.713C327.508 299.049 323.29 295.689 322.917 293.975C322.692 293.912 322.466 293.749 322.241 293.524C325.132 298.199 320.459 294.925 320.736 294.074C315.15 285.485 303.653 284.151 295.549 286.427C295.45 286.734 295.091 286.761 294.865 286.598C260.407 294.069 269.298 365.43 304.609 358.532C306.121 358.224 306.085 358.949 306.385 359.019C305.569 356.876 307.869 357.748 307.845 358.198L307.985 358.192C308.096 358.182 308.05 358.17 308.133 358.198C307.344 353.817 311.783 360.165 311.432 360.426C311.568 360.345 311.722 360.299 311.857 360.281L311.704 359.865C310.967 357.902 311.03 358.718 311.036 357.594C310.482 356.205 310.442 356.812 310.571 355.907C312.517 354.399 313.091 358.973 313.74 359.307C312.627 357.756 313.512 356.489 314.561 357.332C322.514 374.067 332.787 389.791 346.064 402.177C347.516 403.322 348.986 404.45 350.508 405.514C356.156 410.435 364.818 413.599 370.105 417.958C370.105 418.03 370.07 418.12 370.016 418.211L370.137 418.32V418.32L370.259 418.436L372.098 419.32C372.639 419.78 373.125 420.294 373.557 420.862C374.018 421.394 374.423 421.98 374.766 422.602C374.937 423.36 374.559 423.675 373.838 423.351C373.521 423.242 373.207 423.116 372.891 422.999C372.909 423.026 372.917 423.044 372.936 423.062C373.04 423.219 373.74 424.842 372.933 424.578L372.837 424.541C372.394 424.379 371.954 424.198 371.521 424.027C372.035 424.667 372.503 425.361 372.917 425.948C373.36 426.408 373.629 426.949 373.738 427.562C373.72 427.904 373.531 428.049 373.189 428.004C372.666 427.832 372.152 427.652 371.637 427.463L371.784 427.742C372.147 428.458 372.664 429.658 371.746 429.257C370.961 429.014 370.205 428.734 369.448 428.427C369.384 428.554 369.258 428.599 369.006 428.482C366.599 427.625 364.274 426.579 362.047 425.343C360.091 423.919 358.116 422.521 356.152 421.105C354.303 419.996 352.518 418.761 350.816 417.372C339.416 410.006 329.437 400.65 321.52 390.229C308.279 401.7 281.806 390.741 265.43 381.761C250.945 373.736 245.252 358.896 243.78 342.897C240.719 321.358 223.124 313.985 224.348 266.724C224.321 266.733 224.293 266.733 224.257 266.733C223.617 266.543 222.996 266.291 222.41 265.966C221.806 265.678 221.238 265.335 220.705 264.92L220.047 264.009V264.009C219.706 263.82 219.399 263.622 219.165 263.423L219.043 263.58C218.659 264.044 218.917 263.346 218.94 263.207L217.796 261.652C215.086 257.95 212.112 253.796 209.69 250.474L209.614 250.609C209.559 250.711 209.53 250.784 209.556 250.817C203.791 242.531 198.37 232.523 196.864 222.835C195.086 215.372 195.781 207.682 197.332 200.769C203.983 176.561 225.772 121.781 254.382 98.3017ZM410.819 433.083L410.458 432.761L410.776 433.16C410.942 433.365 411.113 433.55 411.39 433.739C411.372 433.676 411.372 433.613 411.38 433.54C411.196 433.4 411.008 433.246 410.819 433.083ZM461.409 59.3186C419.125 55.6818 377.537 65.0006 337.188 76.2807L334.405 77.081C311.462 83.6301 287.202 89.5232 267.814 103.541C240.726 124.297 226.738 157.316 214.531 187.802C203.872 210.452 209.321 235.993 225.384 251.809C227.055 236.092 229.904 220.835 234.357 205.701C235.287 203.336 234.584 202.562 236.586 202.253C239.612 243.038 224.712 273.171 254.197 321.507C266.991 344.315 252.181 361.003 288.309 373.004L289.287 373.378C296.814 376.219 305.034 378.462 312.406 376.874L311.745 375.799C311.072 374.692 310.867 374.155 311.847 373.682C311.821 373.627 311.785 373.573 311.748 373.51C310.955 372.013 310.189 370.498 309.458 368.965C309.162 369.065 308.864 369.137 308.557 369.218C308.756 369.588 308.782 369.957 308.224 370.084C306.238 370.765 304.198 371.039 302.11 370.911L301.662 370.877C299.303 370.733 297.816 370.303 296.487 369.903C296.046 369.831 295.604 369.759 295.171 369.669C290.894 368.72 286.366 366.307 283.435 363.915C250.031 344.935 253.483 280.325 294.658 274.217C295.502 233.537 314.844 164.906 346.943 126.142C375.958 90.4852 455.168 75.0309 510.277 80.4802C511.08 80.7462 511.883 81.0149 512.686 81.2864C521.188 82.0421 529.291 85.8313 537.799 87.5915C531.69 83.0114 524.76 79.9608 517.622 77.3682C503.4 68.6653 487.095 63.9563 471.343 60.6351C468.08 59.8326 464.772 59.3907 461.409 59.3186ZM292.773 306.897C294.987 305.694 294.734 306.856 295.243 306.518C311.167 305.219 328.338 319.166 337.24 330.794C336.537 331.524 334.635 329.36 334.301 329.017C334.256 329.062 334.202 329.098 334.148 329.116L334.396 329.466C338.004 334.646 330.852 328.551 330.182 327.295C330.065 327.358 329.947 327.394 329.812 327.367C330.379 327.923 332.111 329.374 332.408 330.406L332.867 330.788C337.196 334.497 336.837 337.286 331.922 332.02C332.039 332.264 332.084 332.489 332.003 332.669L332.172 332.782C334.589 334.472 336.576 339.181 331.525 334.347C332.05 337.878 326.519 331.053 326.342 331.1C316.771 323.584 302.679 316.274 290.673 315.292L290.26 315.245C288.057 314.962 287.015 314.308 287.789 312.867C285.075 312.221 285.711 310.885 286.995 310.928C285.082 309.669 286.804 308.465 287.915 308.935C287.151 306.82 290.213 308.229 290.493 307.934C292.082 305.482 292.51 307.527 292.773 306.897ZM259.394 175.826C267.043 173.023 289.635 181.413 287.827 192.525C286.751 195.076 283.205 196.538 280.713 195.098L277.46 192.912C271.798 189.119 266.693 185.793 260.615 182.486C257.307 180.843 255.882 177.357 259.394 175.826ZM302.91 159.314L299.956 157.391C284.015 146.954 261.481 131.14 301.445 147.502C306 149.456 312.052 150.612 314.537 154.951C318.441 162.949 308.167 163.486 302.91 159.314ZM304.701 112.486C303.422 107.63 319.338 113.328 323.971 114.831L324.677 115.097C329.184 116.777 334.35 118.336 337.046 122.227C340.205 127.603 333.812 128.717 329.852 126.288C321.733 120.981 312.832 116.976 304.701 112.486ZM345.174 89.8656C336.216 80.0784 360.192 89.4542 363.783 92.0567L363.886 92.1335C366.566 94.0209 366.022 98.086 363.505 99.2799C356.341 99.4161 351.07 93.4428 345.174 89.8656ZM385.942 79.1425C371.699 68.903 390.46 73.7734 396.977 77.7863C401.418 81.7044 396.843 88.3189 385.942 79.1425Z" fill="#172126"/>
<path fill-rule="evenodd" clip-rule="evenodd" d="M515.67 387.366C509.029 389.29 501.902 389.462 495.133 387.475C488.994 385.673 482.69 381.706 478.172 376.458C474.158 371.795 471.558 366.129 471.66 360.081C471.672 359.39 471.919 358.813 472.299 358.366C472.707 357.884 473.279 357.553 473.89 357.409C474.519 357.262 475.185 357.314 475.751 357.572C476.264 357.804 476.703 358.2 476.978 358.779C477.672 359.691 478.364 360.59 479.058 361.464C484.641 368.361 490.048 373.515 498.444 375.364C502.999 376.367 507.549 375.923 511.723 374.392C516.191 372.753 520.231 369.873 523.396 366.186C524.826 364.52 526.515 363.84 528.167 363.828C530.038 363.815 531.888 364.685 533.281 366.076C534.651 367.442 535.568 369.3 535.651 371.242C535.724 372.947 535.168 374.729 533.689 376.318C528.817 381.552 522.502 385.386 515.67 387.366ZM515.465 300.985C522.272 305.124 532.643 314.776 525.321 325.037C516.701 334.085 504.291 323.711 498.176 319.019C492.505 315.383 486.134 324.735 491.395 328.981C535.585 361.71 553.519 302.067 518.908 296.118C515.097 295.463 513.681 299.704 515.465 300.985ZM451.79 282.772C449.602 281.372 447.029 280.892 444.176 282.19C441.947 283.204 438.038 286.584 435.318 291.028C433.456 294.068 432.137 297.634 432.411 301.349C432.475 302.212 432.156 302.848 431.654 303.318C431.257 303.689 430.684 303.962 430.01 304.048C429.438 304.12 428.798 304.055 428.278 303.892C427.288 303.583 426.764 302.941 426.567 302.416C424.662 297.356 425.482 291.708 427.617 286.613C430.498 279.737 435.731 273.978 439.159 272.121C445.025 268.942 451.945 268.796 457.819 272.034C462.82 274.79 465.947 279.24 469.056 283.776C469.718 284.74 470.374 285.697 471.052 286.637C472.411 288.522 472.546 290.39 472.02 291.993C471.437 293.768 469.95 295.266 468.091 296.05C466.373 296.775 464.379 296.877 462.614 296.132C461.123 295.503 459.755 294.277 458.89 292.197C457.432 288.693 455.003 284.827 451.79 282.772V282.772ZM562.903 290.567C561.404 291.348 560.232 291.583 558.57 291.085C557.651 290.809 556.742 290.28 556.031 289.568C555.326 288.863 554.818 287.986 554.62 287.013C554.134 284.613 552.821 282.365 550.95 280.9C549.351 279.648 547.332 278.985 545.093 279.359C542.677 279.762 540.375 281.313 538.789 283.14C538.259 283.752 537.844 284.446 537.426 285.136C536.645 286.426 535.886 287.626 534.809 288.573C534.4 288.934 533.785 289.183 533.189 289.183C532.947 289.183 532.701 289.144 532.466 289.071C530.062 286.656 529.599 284.824 529.677 283.008C529.758 281.102 530.509 279.173 531.722 277.373C534.568 273.151 539.973 269.69 543.619 268.906C548.614 267.832 553.574 269.121 557.55 271.911C561.642 274.783 564.674 279.24 565.619 284.264C565.846 285.474 565.75 286.78 565.289 287.913C564.839 289.019 564.055 289.967 562.903 290.567ZM462.804 237.758C459.807 240.679 456.26 241.132 452.671 241.534C450.677 241.76 449.085 241.942 447.519 242.296C443.213 243.268 438.958 244.732 435.075 246.841C431.016 249.046 426.593 251.704 423.411 255.111C422.654 255.921 421.941 256.772 421.227 257.624C420.576 258.401 419.948 259.149 419.287 259.871C418.527 260.699 417.806 261.568 417.089 262.434C416.646 263.165 416.558 263.345 416.469 263.532C416.334 263.813 416.178 264.128 415.999 264.466C415.755 264.928 415.468 265.434 415.168 265.893C414.669 266.732 414.401 266.963 414.17 267.066C413.786 267.237 413.422 267.322 413.068 267.276C412.737 267.233 412.425 267.074 412.117 266.813C410.578 265.513 410.124 263.378 410.171 261.113C410.241 257.674 411.509 253.868 412.677 251.528C415.395 246.09 419.163 240.438 423.694 236.38C428.865 231.747 434.521 228.24 441.019 225.824C445.056 224.322 449.731 222.943 454.13 223.117C457.297 223.242 460.319 224.184 462.816 226.535C464.348 227.979 465.084 230.032 465.084 232.084C465.084 234.176 464.32 236.281 462.804 237.758ZM568.998 264.509C568.808 264.821 568.544 265.037 568.25 265.166C567.943 265.302 567.599 265.341 567.269 265.285C566.941 265.23 566.629 265.081 566.382 264.854C566.144 264.636 565.964 264.346 565.883 263.992C563.893 255.249 560.029 248.744 551.782 244.549C547.726 242.486 543.061 241.175 538.645 240.129C537.362 239.826 536.006 239.629 534.64 239.429C530.36 238.804 526.05 238.088 523.26 234.627C521.578 232.543 520.873 229.877 521.272 227.439C521.647 225.143 522.988 223.038 525.426 221.776C531.495 218.637 539.036 221.718 545.165 224.342C545.619 224.536 546.066 224.727 546.502 224.912C552.495 227.442 557.961 230.783 562.455 235.56C566.02 239.35 569.323 244.953 570.653 250.717C571.76 255.512 571.5 260.407 568.998 264.509Z" fill="#172126"/>
<path fill-rule="evenodd" clip-rule="evenodd" d="M591.471 309.057C585.401 317.213 574.15 319.811 563.772 318.914C541.389 316.758 534.345 291.328 533.611 271.562C548.62 275.786 532.342 245.871 583.649 242.581C601.736 241.074 596.749 252.001 604.74 259.985C604.576 276.742 601.788 294.949 591.471 309.057M484.86 289.802C471.646 351.711 399.282 336.985 391.681 281.179C398.7 276.222 396.851 263.985 405.571 259.551C419.392 250.717 436.668 251.095 452.363 251.302C472.423 252.681 478.14 260.994 488.445 270.064C487.949 276.122 486.52 283.302 484.86 289.802M620.136 232.328C619.395 232.205 618.652 232.088 617.909 231.979C617.329 231.65 616.649 231.397 615.857 231.244C614.05 230.785 612.255 230.476 610.463 230.309C584.744 224.519 525.245 232.74 522.79 254.697C514.599 257.432 507.513 254.982 498.02 255.226C490.794 225.012 365.874 229.277 359.866 247.492C359.844 247.486 359.821 247.481 359.798 247.473C354.025 245.686 345.515 246.117 338.908 245.834C324.8 245.538 310.676 246.796 296.872 249.773C271.025 253.882 235.748 258.693 253.725 290.983C253.728 290.989 253.731 290.995 253.735 291.001L253.738 290.998C256.836 294.175 262.094 291.616 262.29 287.316C256.246 272.018 269.897 270.182 280.4 265.785C306.535 256.393 333.142 255.091 360.172 257.996C362.206 260.391 365.291 262.48 368.552 263.573C386.625 266.574 377.1 279.985 388.524 281.935C386.426 328.684 443.161 354.202 476.035 323.471C489.16 310.634 492.289 291.616 495.332 274.475C496.941 274.113 497.964 273.233 498.562 272.068C502.431 268.203 504.862 264.634 512.515 263.573C520.167 262.512 526.057 264.641 526.854 265.293C527.055 265.698 527.271 266.104 527.521 266.51C527.871 267.115 528.347 267.597 528.888 267.977C521.331 314.529 557.457 343.97 593.927 319.825C609.774 304.913 613.123 282.082 613.784 261.704C615.932 260.407 617.292 257.894 616.549 254.734C615.524 250.379 617.927 246.608 621.754 244.714C626.727 242.255 625.848 233.274 620.136 232.328" fill="#172126"/>
</svg>
